<?xml version="1.0" encoding="UTF-8" standalone="no"?>
<svg
   data-v-fde0c5aa=""
   viewBox="0 0 295.64575 61.738266"
   class="iconLeft"
   version="1.1"
   id="svg7"
   sodipodi:docname="exchanger_logo_horizontal1.svg"
   width="295.64575"
   height="61.738266"
   inkscape:version="1.3.2 (091e20e, 2023-11-25, custom)"
   xmlns:inkscape="http://www.inkscape.org/namespaces/inkscape"
   xmlns:sodipodi="http://sodipodi.sourceforge.net/DTD/sodipodi-0.dtd"
   xmlns:xlink="http://www.w3.org/1999/xlink"
   xmlns="http://www.w3.org/2000/svg"
   xmlns:svg="http://www.w3.org/2000/svg">
  <sodipodi:namedview
     id="namedview7"
     pagecolor="#ffffff"
     bordercolor="#000000"
     borderopacity="0.25"
     inkscape:showpageshadow="2"
     inkscape:pageopacity="0.0"
     inkscape:pagecheckerboard="0"
     inkscape:deskcolor="#d1d1d1"
     inkscape:zoom="2.71"
     inkscape:cx="148.52399"
     inkscape:cy="44.095941"
     inkscape:window-width="1920"
     inkscape:window-height="1009"
     inkscape:window-x="-8"
     inkscape:window-y="-8"
     inkscape:window-maximized="1"
     inkscape:current-layer="svg7" />
  <!---->
  <defs
     data-v-fde0c5aa=""
     id="defs1">
    <!---->
    <linearGradient
       inkscape:collect="always"
       xlink:href="#d2f17f02-7c4f-4db1-980d-a7809eeaec9d"
       id="linearGradient7"
       gradientTransform="scale(2.244549,0.44552381)"
       x1="15.288595"
       y1="123.87217"
       x2="22.022242"
       y2="123.87217"
       gradientUnits="userSpaceOnUse" />
    <linearGradient
       inkscape:collect="always"
       xlink:href="#d2f17f02-7c4f-4db1-980d-a7809eeaec9d"
       id="linearGradient8"
       gradientTransform="scale(0.99992697,1.000073)"
       x1="40.748295"
       y1="55.28603"
       x2="49.811569"
       y2="55.28603"
       gradientUnits="userSpaceOnUse" />
    <linearGradient
       inkscape:collect="always"
       xlink:href="#d2f17f02-7c4f-4db1-980d-a7809eeaec9d"
       id="linearGradient9"
       gradientTransform="scale(1.192369,0.83866654)"
       x1="28.779667"
       y1="40.706287"
       x2="57.454948"
       y2="40.706287"
       gradientUnits="userSpaceOnUse" />
    <linearGradient
       inkscape:collect="always"
       xlink:href="#d2f17f02-7c4f-4db1-980d-a7809eeaec9d"
       id="linearGradient10"
       gradientTransform="scale(0.99998234,1.0000177)"
       x1="53.034256"
       y1="34.121464"
       x2="62.097031"
       y2="34.121464"
       gradientUnits="userSpaceOnUse" />
    <linearGradient
       inkscape:collect="always"
       xlink:href="#d2f17f02-7c4f-4db1-980d-a7809eeaec9d"
       id="linearGradient11"
       gradientTransform="scale(0.80945366,1.2354012)"
       x1="65.152588"
       y1="32.610516"
       x2="84.633652"
       y2="32.610516"
       gradientUnits="userSpaceOnUse" />
    <linearGradient
       inkscape:collect="always"
       xlink:href="#d2f17f02-7c4f-4db1-980d-a7809eeaec9d"
       id="linearGradient12"
       gradientTransform="scale(1.0634724,0.94031592)"
       x1="32.267864"
       y1="36.287876"
       x2="64.418694"
       y2="36.287876"
       gradientUnits="userSpaceOnUse" />
    <linearGradient
       inkscape:collect="always"
       xlink:href="#d2f17f02-7c4f-4db1-980d-a7809eeaec9d"
       id="linearGradient13"
       gradientTransform="scale(1.0634724,0.94031592)"
       x1="32.267864"
       y1="36.287876"
       x2="64.418694"
       y2="36.287876"
       gradientUnits="userSpaceOnUse" />
    <linearGradient
       inkscape:collect="always"
       xlink:href="#d2f17f02-7c4f-4db1-980d-a7809eeaec9d"
       id="linearGradient14"
       gradientTransform="scale(1.0634724,0.94031592)"
       x1="32.267864"
       y1="36.287876"
       x2="64.418694"
       y2="36.287876"
       gradientUnits="userSpaceOnUse" />
  </defs>
  <defs
     data-v-fde0c5aa=""
     id="defs2">
    <!---->
  </defs>
  <g
     data-v-fde0c5aa=""
     id="6f52b5e0-7c1d-4542-a698-db8bf3dbddf6"
     fill="#000000"
     transform="matrix(2.9049961,0,0,3.0830649,78.584436,-0.80942661)">
    <path
       d="m 1.61,13.78 h 5.81 v -1 H 2.79 V 9.42 H 6.58 V 8.43 H 2.79 V 5.52 H 7.28 V 4.54 H 1.61 Z m 7.69,0 h 1.23 l 1.12,-1.68 c 0.28,-0.45 0.56,-0.87 0.84,-1.29 h 0.05 c 0.3,0.4 0.62,0.88 0.9,1.29 l 1.19,1.68 h 1.26 l -2.6,-3.62 2.42,-3.52 H 14.49 L 13.47,8.2 C 13.23,8.61 12.95,9.04 12.7,9.44 H 12.64 C 12.36,9.04 12.08,8.62 11.84,8.25 L 10.77,6.64 H 9.49 l 2.4,3.44 z m 12.34,0.18 c 1.01,0 1.96,-0.42 2.71,-1.12 L 23.84,12.1 c -0.57,0.5 -1.27,0.91 -2.11,0.91 -1.57,0 -2.62,-1.12 -2.62,-2.79 0,-1.67 1.08,-2.8 2.65,-2.8 0.71,0 1.3,0.31 1.86,0.84 L 24.19,7.52 C 23.63,6.94 22.82,6.47 21.71,6.47 c -2.05,0 -3.79,1.36 -3.79,3.75 0,2.37 1.6,3.74 3.72,3.74 z m 4.86,-0.18 h 1.15 V 8.79 c 0.8,-0.89 1.34,-1.33 2.16,-1.33 1.12,0 1.56,0.66 1.56,2.03 v 4.29 h 1.15 V 9.34 c 0,-1.88 -0.74,-2.87 -2.35,-2.87 -1.06,0 -1.85,0.6 -2.58,1.41 L 27.65,6.17 V 3.6 H 26.5 Z m 10.54,0.18 c 0.97,0 1.94,-0.55 2.69,-1.16 h 0.04 l 0.1,0.98 h 0.94 v -4.4 c 0,-1.75 -0.9,-2.91 -2.76,-2.91 -1.19,0 -2.2,0.56 -2.74,1.02 l 0.45,0.8 c 0.49,-0.42 1.21,-0.87 2.1,-0.87 1.31,0 1.77,0.85 1.8,1.83 -3.51,0.31 -4.93,1.08 -4.93,2.69 0,1.28 1.04,2.02 2.31,2.02 z m 0.31,-0.93 c -0.78,0 -1.5,-0.35 -1.5,-1.17 0,-0.97 0.9,-1.58 3.81,-1.84 v 1.92 c -0.77,0.7 -1.54,1.09 -2.31,1.09 z m 5.95,0.75 h 1.15 V 8.79 c 0.8,-0.89 1.34,-1.33 2.16,-1.33 1.12,0 1.56,0.66 1.56,2.03 v 4.29 h 1.15 V 9.34 c 0,-1.88 -0.74,-2.87 -2.35,-2.87 -1.06,0 -1.85,0.6 -2.56,1.41 H 44.35 L 44.25,6.64 H 43.3 Z m 11.02,3.17 c 2.02,0 3.18,-1.1 3.18,-3.17 V 6.64 h -0.93 l -0.09,0.79 h -0.05 c -0.6,-0.6 -1.28,-0.96 -2.08,-0.96 -1.65,0 -3.11,1.4 -3.11,3.64 0,2.25 1.19,3.6 2.94,3.6 0.84,0 1.68,-0.48 2.21,-1.07 l -0.01,1.14 c -0.02,1.66 -0.76,2.25 -2.06,2.25 -0.69,0 -1.47,-0.2 -2.17,-1.09 l -0.56,0.7 c 0.88,1.05 1.85,1.31 2.73,1.31 z m 0.11,-4.2 c -1.24,0 -2.01,-1.03 -2.01,-2.66 0,-1.55 0.98,-2.66 2.12,-2.66 0.61,0 1.19,0.24 1.81,0.86 v 3.37 c -0.62,0.72 -1.26,1.09 -1.92,1.09 z m 8.99,1.21 c 1.09,0 1.95,-0.39 2.62,-0.84 l -0.41,-0.77 c -0.63,0.42 -1.27,0.67 -2.07,0.67 -1.48,0 -2.55,-0.99 -2.6,-2.53 h 5.32 c 0.02,-0.19 0.04,-0.44 0.04,-0.68 0,-2.01 -1.15,-3.34 -3.1,-3.34 -1.76,0 -3.45,1.43 -3.45,3.75 0,2.34 1.63,3.74 3.65,3.74 z M 60.94,9.65 c 0.18,-1.43 1.19,-2.27 2.3,-2.27 1.26,0 2.01,0.81 2.01,2.27 z m 8.3,4.13 h 1.15 V 9.56 c 0.81,-1.5 1.78,-2.06 2.8,-2.06 0.53,0 0.79,0.07 1.26,0.26 l 0.27,-1 C 74.3,6.54 73.88,6.47 73.37,6.47 72.11,6.47 71.05,7.2 70.34,8.34 H 70.29 L 70.2,6.64 h -0.96 z"
       id="path2" />
  </g>
  <defs
     data-v-fde0c5aa=""
     id="defs3">
    <linearGradient
       data-v-fde0c5aa=""
       gradientTransform="rotate(25)"
       id="d2f17f02-7c4f-4db1-980d-a7809eeaec9d"
       x1="0"
       y1="0"
       x2="1"
       y2="0">
      <stop
         data-v-fde0c5aa=""
         offset="0%"
         stop-color="#E90DCA"
         stop-opacity="1"
         id="stop2" />
      <stop
         data-v-fde0c5aa=""
         offset="100%"
         stop-color="#1536F1"
         stop-opacity="1"
         id="stop3" />
    </linearGradient>
  </defs>
  <g
     data-v-fde0c5aa=""
     id="726c71ba-7208-402a-9800-0cd7401c1799"
     stroke="none"
     fill="url(#d2f17f02-7c4f-4db1-980d-a7809eeaec9d)"
     transform="matrix(1.924205,0,0,2.0421539,-66.030984,-69.682514)"
     style="fill:url(#linearGradient14)">
    <switch
       id="switch7"
       style="fill:url(#linearGradient13)">
      <g
         id="g7"
         style="fill:url(#linearGradient12)">
        <path
           d="M 47.93,58.188 H 35.816 a 1.5,1.5 0 1 1 0,-3 H 47.93 a 1.5,1.5 0 1 1 0,3 z"
           id="path3"
           style="fill:url(#linearGradient7)" />
        <path
           d="m 42.245,64.354 a 1.5,1.5 0 0 1 -1.061,-2.56 l 6.045,-6.046 a 1.5,1.5 0 1 1 2.121,2.121 l -6.045,6.046 a 1.491,1.491 0 0 1 -1.06,0.439 z"
           id="path4"
           style="fill:url(#linearGradient8)" />
        <path
           d="m 48.291,58.188 c -0.384,0 -0.768,-0.146 -1.061,-0.439 l -6.048,-6.048 a 1.5,1.5 0 1 1 2.121,-2.121 l 6.048,6.048 a 1.5,1.5 0 0 1 -1.06,2.56 z m -2.149,-9.64 a 1.5,1.5 0 0 1 -0.927,-2.679 4.859,4.859 0 0 0 1.871,-3.844 c 0,-2.693 -2.191,-4.885 -4.885,-4.885 -2.694,0 -4.885,2.191 -4.885,4.885 0,1.492 0.67,2.884 1.837,3.817 a 1.5,1.5 0 0 1 -1.873,2.343 7.85,7.85 0 0 1 -2.964,-6.161 c 0,-4.348 3.537,-7.885 7.885,-7.885 4.348,0 7.885,3.537 7.885,7.885 0,2.437 -1.1,4.698 -3.019,6.203 a 1.492,1.492 0 0 1 -0.925,0.321 z M 67.007,43.305 H 54.894 a 1.5,1.5 0 1 1 0,-3 h 12.114 a 1.5000001,1.5000001 0 1 1 -10e-4,3 z"
           id="path5"
           style="fill:url(#linearGradient9)" />
        <path
           d="m 54.533,43.185 a 1.5,1.5 0 0 1 -1.061,-2.56 l 6.045,-6.045 a 1.5,1.5 0 1 1 2.121,2.121 l -6.045,6.045 a 1.497,1.497 0 0 1 -1.06,0.439 z"
           id="path6"
           style="fill:url(#linearGradient10)" />
        <path
           d="m 60.581,49.353 c -0.384,0 -0.768,-0.146 -1.061,-0.439 l -6.048,-6.048 a 1.5,1.5 0 1 1 2.121,-2.121 l 6.048,6.048 a 1.5,1.5 0 0 1 -1.06,2.56 z m 0.042,15.001 c -4.348,0 -7.885,-3.537 -7.885,-7.885 0,-2.437 1.1,-4.697 3.018,-6.204 a 1.5,1.5 0 0 1 1.853,2.359 4.862,4.862 0 0 0 -1.872,3.845 c 0,2.693 2.191,4.885 4.885,4.885 2.694,0 4.885,-2.191 4.885,-4.885 0,-1.493 -0.67,-2.885 -1.837,-3.818 a 1.5,1.5 0 0 1 1.873,-2.343 7.85,7.85 0 0 1 2.964,6.162 c 0,4.347 -3.537,7.884 -7.884,7.884 z"
           id="path7"
           style="fill:url(#linearGradient11)" />
      </g>
    </switch>
  </g>
  <!---->
</svg>
