<svg data-v-fde0c5aa="" xmlns="http://www.w3.org/2000/svg" viewBox="0 0 300 300" class="iconAbove"><!----><defs data-v-fde0c5aa=""><!----></defs><rect data-v-fde0c5aa="" fill="transparent" x="0" y="0" width="300px" height="300px" class="logo-background-square"></rect><defs data-v-fde0c5aa=""><!----></defs><g data-v-fde0c5aa="" id="583a3879-5fc2-4542-9507-7ba27a110cf5" fill="#000000" transform="matrix(4.269294084920175,0,0,4.269294084920175,15.090311904129702,179.70607692259028)"><path d="M5.96 10.50L1.15 10.50L1.15 1.33L5.92 1.33L5.92 2.02L1.92 2.02L1.92 5.49L5.54 5.49L5.54 6.17L1.92 6.17L1.92 9.81L5.96 9.81L5.96 10.50ZM10.02 7.13L7.84 3.85L8.81 3.85L10.50 6.59L12.18 3.85L13.12 3.85L11.02 7.13L13.24 10.50L12.29 10.50L10.50 7.66L8.72 10.50L7.77 10.50L10.02 7.13ZM19.78 6.02L19.03 6.02L19.03 4.63Q18.34 4.48 17.93 4.48L17.93 4.48Q16.93 4.48 16.43 5.19Q15.93 5.91 15.93 7.17Q15.93 8.43 16.44 9.16Q16.94 9.90 17.93 9.90L17.93 9.90Q18.56 9.90 19.68 9.51L19.68 9.51L19.89 10.21Q18.79 10.63 17.95 10.63L17.95 10.63Q16.58 10.63 15.86 9.71Q15.13 8.79 15.13 7.15Q15.13 5.52 15.85 4.64Q16.56 3.77 17.95 3.77L17.95 3.77Q18.87 3.77 19.78 4.06L19.78 4.06L19.78 6.02ZM22.83 5.07L22.83 5.07L22.83 10.50L22.09 10.50L22.09 1.20L22.83 1.20L22.83 4.35Q24.15 3.77 25.00 3.77L25.00 3.77Q27.01 3.77 27.01 6.06L27.01 6.06L27.01 10.50L26.26 10.50L26.26 6.06Q26.26 5.35 25.96 4.92Q25.65 4.49 24.89 4.49Q24.14 4.49 22.83 5.07ZM31.05 9.90L31.05 9.90Q31.57 9.90 32.18 9.57Q32.79 9.24 33.07 8.96L33.07 8.96L33.07 7.29Q32.14 7.22 31.30 7.22Q30.46 7.22 30.04 7.58Q29.62 7.94 29.62 8.54L29.62 8.54Q29.62 9.90 31.05 9.90ZM31.04 10.63L31.04 10.63Q30.02 10.63 29.43 10.10Q28.84 9.58 28.84 8.61Q28.84 7.64 29.48 7.11L29.48 7.11Q30.13 6.57 31.19 6.57Q32.26 6.57 33.07 6.65L33.07 6.65Q33.07 5.40 32.76 4.95Q32.45 4.49 31.51 4.49Q30.58 4.49 29.30 4.94L29.30 4.94L29.09 4.24Q30.39 3.77 31.44 3.77L31.44 3.77Q32.83 3.77 33.32 4.38Q33.81 5.00 33.81 6.54L33.81 6.54L33.81 9.48L33.92 10.54L33.21 10.61L33.07 9.77Q32.75 10.05 32.16 10.34Q31.57 10.63 31.04 10.63ZM36.06 3.85L36.78 3.85L36.81 4.41Q38.16 3.77 39.06 3.77Q39.96 3.77 40.47 4.38Q40.98 5.00 40.98 6.06L40.98 6.06L40.98 10.50L40.24 10.50L40.24 6.06Q40.24 5.38 39.90 4.93L39.90 4.93Q39.56 4.49 38.89 4.49Q38.22 4.49 36.81 5.11L36.81 5.11L36.81 10.50L36.06 10.50L36.06 3.85ZM47.99 3.85L47.99 8.89L48.03 10.82Q48.03 12.07 47.28 12.68Q46.54 13.30 45.43 13.30Q44.32 13.30 42.91 12.74L42.91 12.74L43.16 12.04Q44.55 12.57 45.37 12.57Q46.19 12.57 46.74 12.14Q47.29 11.72 47.29 10.84L47.29 10.84Q47.29 10.72 47.27 10.34Q47.25 9.95 47.25 9.77L47.25 9.77Q46.23 10.49 45.35 10.49L45.35 10.49Q44.09 10.49 43.41 9.63Q42.73 8.76 42.73 7.17Q42.73 5.59 43.48 4.68Q44.24 3.77 45.58 3.77L45.58 3.77Q46.33 3.77 47.25 4.26L47.25 4.26L47.28 3.85L47.99 3.85ZM43.53 7.16Q43.53 8.39 44.00 9.07Q44.48 9.76 45.39 9.76Q46.30 9.76 47.25 8.96L47.25 8.96L47.25 5.04Q46.38 4.49 45.61 4.49L45.61 4.49Q44.62 4.49 44.07 5.21Q43.53 5.94 43.53 7.16ZM49.94 7.18Q49.94 5.57 50.60 4.67Q51.27 3.77 52.54 3.77Q53.82 3.77 54.44 4.61Q55.06 5.45 55.06 6.85L55.06 6.85L55.02 7.55L50.74 7.55Q50.81 8.60 51.30 9.25Q51.79 9.90 52.65 9.90Q53.51 9.90 54.67 9.49L54.67 9.49L54.88 10.19Q53.75 10.63 52.75 10.63L52.75 10.63Q51.38 10.63 50.66 9.71Q49.94 8.79 49.94 7.18ZM52.60 4.48L52.60 4.48Q50.83 4.48 50.74 6.85L50.74 6.85L54.26 6.85Q54.26 4.48 52.60 4.48ZM58.59 4.55L57.27 4.55L57.27 3.85L59.33 3.85L59.36 4.66Q59.81 4.38 60.62 4.10Q61.43 3.82 62.05 3.77L62.05 3.77L62.05 4.59Q61.47 4.63 60.63 4.87Q59.78 5.11 59.36 5.36L59.36 5.36L59.36 9.80L61.60 9.80L61.60 10.50L57.27 10.50L57.27 9.80L58.59 9.80L58.59 4.55Z"></path></g><defs data-v-fde0c5aa=""><linearGradient data-v-fde0c5aa="" gradientTransform="rotate(25)" id="e43e5f92-5ad8-4c3b-a665-9dc7a895add3" x1="0%" y1="0%" x2="100%" y2="0%"><stop data-v-fde0c5aa="" offset="0%" stop-color="#E90DCA" stop-opacity="1"></stop><stop data-v-fde0c5aa="" offset="100%" stop-color="#1536F1" stop-opacity="1"></stop></linearGradient></defs><g data-v-fde0c5aa="" id="2a83ded4-cbf4-457c-a489-56e2d9bc8964" stroke="none" fill="url(#e43e5f92-5ad8-4c3b-a665-9dc7a895add3)" transform="matrix(3.417469949207657,0,0,3.417469949207657,-25.69808078125915,-53.09861835950473)"><switch><g><path d="M47.93 58.188H35.816a1.5 1.5 0 110-3H47.93a1.5 1.5 0 110 3z"></path><path d="M42.245 64.354a1.5 1.5 0 01-1.061-2.56l6.045-6.046a1.5 1.5 0 112.121 2.121l-6.045 6.046a1.491 1.491 0 01-1.06.439z"></path><path d="M48.291 58.188c-.384 0-.768-.146-1.061-.439l-6.048-6.048a1.5 1.5 0 112.121-2.121l6.048 6.048a1.5 1.5 0 01-1.06 2.56zM46.142 48.548a1.5 1.5 0 01-.927-2.679 4.859 4.859 0 001.871-3.844c0-2.693-2.191-4.885-4.885-4.885s-4.885 2.191-4.885 4.885c0 1.492.67 2.884 1.837 3.817a1.5 1.5 0 01-1.873 2.343 7.85 7.85 0 01-2.964-6.161c0-4.348 3.537-7.885 7.885-7.885s7.885 3.537 7.885 7.885c0 2.437-1.1 4.698-3.019 6.203a1.492 1.492 0 01-.925.321zM67.007 43.305H54.894a1.5 1.5 0 110-3h12.114a1.5 1.5 0 11-.001 3z"></path><path d="M54.533 43.185a1.5 1.5 0 01-1.061-2.56l6.045-6.045a1.5 1.5 0 112.121 2.121l-6.045 6.045a1.497 1.497 0 01-1.06.439z"></path><path d="M60.581 49.353c-.384 0-.768-.146-1.061-.439l-6.048-6.048a1.5 1.5 0 112.121-2.121l6.048 6.048a1.5 1.5 0 01-1.06 2.56zM60.623 64.354c-4.348 0-7.885-3.537-7.885-7.885 0-2.437 1.1-4.697 3.018-6.204a1.5 1.5 0 011.853 2.359 4.862 4.862 0 00-1.872 3.845c0 2.693 2.191 4.885 4.885 4.885s4.885-2.191 4.885-4.885c0-1.493-.67-2.885-1.837-3.818a1.5 1.5 0 011.873-2.343 7.85 7.85 0 012.964 6.162c0 4.347-3.537 7.884-7.884 7.884z"></path></g></switch></g><!----></svg>