<svg data-v-fde0c5aa="" xmlns="http://www.w3.org/2000/svg" viewBox="0 0 300 300" class="iconLeft"><!----><defs data-v-fde0c5aa=""><!----></defs><rect data-v-fde0c5aa="" fill="transparent" x="0" y="0" width="300px" height="300px" class="logo-background-square"></rect><defs data-v-fde0c5aa=""><!----></defs><g data-v-fde0c5aa="" id="6f52b5e0-7c1d-4542-a698-db8bf3dbddf6" fill="#000000" transform="matrix(2.161705749369444,0,0,2.161705749369444,98.47734505679125,127.78847321907264)"><path d="M1.61 13.78L7.42 13.78L7.42 12.78L2.79 12.78L2.79 9.42L6.58 9.42L6.58 8.43L2.79 8.43L2.79 5.52L7.28 5.52L7.28 4.54L1.61 4.54ZM9.30 13.78L10.53 13.78L11.65 12.10C11.93 11.65 12.21 11.23 12.49 10.81L12.54 10.81C12.84 11.21 13.16 11.69 13.44 12.10L14.63 13.78L15.89 13.78L13.29 10.16L15.71 6.64L14.49 6.64L13.47 8.20C13.23 8.61 12.95 9.04 12.70 9.44L12.64 9.44C12.36 9.04 12.08 8.62 11.84 8.25L10.77 6.64L9.49 6.64L11.89 10.08ZM21.64 13.96C22.65 13.96 23.60 13.54 24.35 12.84L23.84 12.10C23.27 12.60 22.57 13.01 21.73 13.01C20.16 13.01 19.11 11.89 19.11 10.22C19.11 8.55 20.19 7.42 21.76 7.42C22.47 7.42 23.06 7.73 23.62 8.26L24.19 7.52C23.63 6.94 22.82 6.47 21.71 6.47C19.66 6.47 17.92 7.83 17.92 10.22C17.92 12.59 19.52 13.96 21.64 13.96ZM26.50 13.78L27.65 13.78L27.65 8.79C28.45 7.90 28.99 7.46 29.81 7.46C30.93 7.46 31.37 8.12 31.37 9.49L31.37 13.78L32.52 13.78L32.52 9.34C32.52 7.46 31.78 6.47 30.17 6.47C29.11 6.47 28.32 7.07 27.59 7.88L27.65 6.17L27.65 3.60L26.50 3.60ZM37.04 13.96C38.01 13.96 38.98 13.41 39.73 12.80L39.77 12.80L39.87 13.78L40.81 13.78L40.81 9.38C40.81 7.63 39.91 6.47 38.05 6.47C36.86 6.47 35.85 7.03 35.31 7.49L35.76 8.29C36.25 7.87 36.97 7.42 37.86 7.42C39.17 7.42 39.63 8.27 39.66 9.25C36.15 9.56 34.73 10.33 34.73 11.94C34.73 13.22 35.77 13.96 37.04 13.96ZM37.35 13.03C36.57 13.03 35.85 12.68 35.85 11.86C35.85 10.89 36.75 10.28 39.66 10.02L39.66 11.94C38.89 12.64 38.12 13.03 37.35 13.03ZM43.30 13.78L44.45 13.78L44.45 8.79C45.25 7.90 45.79 7.46 46.61 7.46C47.73 7.46 48.17 8.12 48.17 9.49L48.17 13.78L49.32 13.78L49.32 9.34C49.32 7.46 48.58 6.47 46.97 6.47C45.91 6.47 45.12 7.07 44.41 7.88L44.35 7.88L44.25 6.64L43.30 6.64ZM54.32 16.95C56.34 16.95 57.50 15.85 57.50 13.78L57.50 6.64L56.57 6.64L56.48 7.43L56.43 7.43C55.83 6.83 55.15 6.47 54.35 6.47C52.70 6.47 51.24 7.87 51.24 10.11C51.24 12.36 52.43 13.71 54.18 13.71C55.02 13.71 55.86 13.23 56.39 12.64L56.38 13.78C56.36 15.44 55.62 16.03 54.32 16.03C53.63 16.03 52.85 15.83 52.15 14.94L51.59 15.64C52.47 16.69 53.44 16.95 54.32 16.95ZM54.43 12.75C53.19 12.75 52.42 11.72 52.42 10.09C52.42 8.54 53.40 7.43 54.54 7.43C55.15 7.43 55.73 7.67 56.35 8.29L56.35 11.66C55.73 12.38 55.09 12.75 54.43 12.75ZM63.42 13.96C64.51 13.96 65.37 13.57 66.04 13.12L65.63 12.35C65.00 12.77 64.36 13.02 63.56 13.02C62.08 13.02 61.01 12.03 60.96 10.49L66.28 10.49C66.30 10.30 66.32 10.05 66.32 9.81C66.32 7.80 65.17 6.47 63.22 6.47C61.46 6.47 59.77 7.90 59.77 10.22C59.77 12.56 61.40 13.96 63.42 13.96ZM60.94 9.65C61.12 8.22 62.13 7.38 63.24 7.38C64.50 7.38 65.25 8.19 65.25 9.65ZM69.24 13.78L70.39 13.78L70.39 9.56C71.20 8.06 72.17 7.50 73.19 7.50C73.72 7.50 73.98 7.57 74.45 7.76L74.72 6.76C74.30 6.54 73.88 6.47 73.37 6.47C72.11 6.47 71.05 7.20 70.34 8.34L70.29 8.34L70.20 6.64L69.24 6.64Z"></path></g><defs data-v-fde0c5aa=""><linearGradient data-v-fde0c5aa="" gradientTransform="rotate(25)" id="d2f17f02-7c4f-4db1-980d-a7809eeaec9d" x1="0%" y1="0%" x2="100%" y2="0%"><stop data-v-fde0c5aa="" offset="0%" stop-color="#E90DCA" stop-opacity="1"></stop><stop data-v-fde0c5aa="" offset="100%" stop-color="#1536F1" stop-opacity="1"></stop></linearGradient></defs><g data-v-fde0c5aa="" id="726c71ba-7208-402a-9800-0cd7401c1799" stroke="none" fill="url(#d2f17f02-7c4f-4db1-980d-a7809eeaec9d)" transform="matrix(1.431865970524035,0,0,1.431865970524035,-9.135877118775433,79.49778209797071)"><switch><g><path d="M47.93 58.188H35.816a1.5 1.5 0 110-3H47.93a1.5 1.5 0 110 3z"></path><path d="M42.245 64.354a1.5 1.5 0 01-1.061-2.56l6.045-6.046a1.5 1.5 0 112.121 2.121l-6.045 6.046a1.491 1.491 0 01-1.06.439z"></path><path d="M48.291 58.188c-.384 0-.768-.146-1.061-.439l-6.048-6.048a1.5 1.5 0 112.121-2.121l6.048 6.048a1.5 1.5 0 01-1.06 2.56zM46.142 48.548a1.5 1.5 0 01-.927-2.679 4.859 4.859 0 001.871-3.844c0-2.693-2.191-4.885-4.885-4.885s-4.885 2.191-4.885 4.885c0 1.492.67 2.884 1.837 3.817a1.5 1.5 0 01-1.873 2.343 7.85 7.85 0 01-2.964-6.161c0-4.348 3.537-7.885 7.885-7.885s7.885 3.537 7.885 7.885c0 2.437-1.1 4.698-3.019 6.203a1.492 1.492 0 01-.925.321zM67.007 43.305H54.894a1.5 1.5 0 110-3h12.114a1.5 1.5 0 11-.001 3z"></path><path d="M54.533 43.185a1.5 1.5 0 01-1.061-2.56l6.045-6.045a1.5 1.5 0 112.121 2.121l-6.045 6.045a1.497 1.497 0 01-1.06.439z"></path><path d="M60.581 49.353c-.384 0-.768-.146-1.061-.439l-6.048-6.048a1.5 1.5 0 112.121-2.121l6.048 6.048a1.5 1.5 0 01-1.06 2.56zM60.623 64.354c-4.348 0-7.885-3.537-7.885-7.885 0-2.437 1.1-4.697 3.018-6.204a1.5 1.5 0 011.853 2.359 4.862 4.862 0 00-1.872 3.845c0 2.693 2.191 4.885 4.885 4.885s4.885-2.191 4.885-4.885c0-1.493-.67-2.885-1.837-3.818a1.5 1.5 0 011.873-2.343 7.85 7.85 0 012.964 6.162c0 4.347-3.537 7.884-7.884 7.884z"></path></g></switch></g><!----></svg>